<svg width="52" height="52" viewBox="0 0 52 52" fill="none" xmlns="http://www.w3.org/2000/svg">
<path d="M26 0C40.365 0 52 11.9293 52 26.6576C51.9986 32.2431 50.2889 37.6875 47.1115 42.2244C43.9341 46.7614 39.449 50.1625 34.2875 51.9491C32.9875 52.2156 32.5 51.3826 32.5 50.6828C32.5 49.7831 32.5325 46.9174 32.5325 43.352C32.5325 40.8528 31.72 39.2534 30.7775 38.4203C36.5625 37.7539 42.64 35.488 42.64 25.2581C42.64 22.3258 41.6325 19.9599 39.975 18.0939C40.235 17.4274 41.145 14.695 39.715 11.0296C39.715 11.0296 37.5375 10.2965 32.565 13.762C30.485 13.1622 28.275 12.8623 26.065 12.8623C23.855 12.8623 21.645 13.1622 19.565 13.762C14.5925 10.3298 12.415 11.0296 12.415 11.0296C10.985 14.695 11.895 17.4274 12.155 18.0939C10.4975 19.9599 9.49 22.3591 9.49 25.2581C9.49 35.4547 15.535 37.7539 21.32 38.4203C20.5725 39.0868 19.89 40.253 19.6625 41.9858C18.1675 42.6855 14.43 43.8185 12.09 39.7865C11.6025 38.9868 10.14 37.0208 8.0925 37.0541C5.915 37.0874 7.215 38.3204 8.125 38.8202C9.23 39.4533 10.4975 41.8192 10.79 42.5856C11.31 44.0851 13 46.9508 19.5325 45.7178C19.5325 47.9504 19.565 50.0497 19.565 50.6828C19.565 51.3826 19.0775 52.1823 17.7775 51.9491C12.5991 50.1818 8.09489 46.7875 4.90389 42.2478C1.7129 37.7081 -0.00286156 32.2534 3.58251e-06 26.6576C3.58251e-06 11.9293 11.635 0 26 0Z" fill="#D6D3D1"/>
</svg>
