<svg width="24" height="24" viewBox="0 0 24 24" fill="none" xmlns="http://www.w3.org/2000/svg">
<path d="M12.0011 18.0011C15.315 18.0011 18.0015 15.3147 18.0015 12.0008C18.0015 8.68685 15.315 6.00039 12.0011 6.00039C8.68719 6.00039 6.00073 8.68685 6.00073 12.0008C6.00073 15.3147 8.68719 18.0011 12.0011 18.0011Z" fill="#FFD234"/>
<path fill-rule="evenodd" clip-rule="evenodd" d="M4.50038 11.9978C4.50038 11.1686 3.8295 10.4978 3.00038 10.4978H1.5C0.670875 10.4978 0 11.1686 0 11.9978C0 12.8269 0.670875 13.4978 1.5 13.4978H3C3.8295 13.4978 4.50038 12.8269 4.50038 11.9978Z" fill="#FFD234"/>
<path fill-rule="evenodd" clip-rule="evenodd" d="M4.57655 17.301L3.51454 18.3634C2.92842 18.9491 2.92842 19.8986 3.51454 20.4844C4.1003 21.0701 5.0498 21.0701 5.63592 20.4844L6.6983 19.4224C7.28405 18.8366 7.28405 17.8868 6.6983 17.301C6.11179 16.7149 5.16267 16.7149 4.57655 17.301Z" fill="#FFD234"/>
<path fill-rule="evenodd" clip-rule="evenodd" d="M12.0012 19.4985C11.1721 19.4985 10.5012 20.1694 10.5012 20.9985V22.4989C10.5012 23.328 11.1721 23.9989 12.0012 23.9989C12.8303 23.9989 13.5012 23.328 13.5012 22.4989L13.4997 20.9985C13.5012 20.1694 12.8288 19.4985 12.0012 19.4985Z" fill="#FFD234"/>
<path fill-rule="evenodd" clip-rule="evenodd" d="M19.4242 17.3025C18.8396 16.7153 17.8901 16.7153 17.3043 17.301C16.7186 17.8868 16.7186 18.8366 17.3043 19.4224L18.3652 20.4829C18.9509 21.0716 19.9004 21.0686 20.4862 20.4829C21.0719 19.8971 21.0734 18.9491 20.4862 18.3619L19.4242 17.3025Z" fill="#FFD234"/>
<path fill-rule="evenodd" clip-rule="evenodd" d="M22.5023 10.4978L20.999 10.5008C20.1728 10.4978 19.502 11.1686 19.502 11.9978C19.499 12.8269 20.1728 13.4978 20.999 13.4978H22.4993C23.3315 13.5008 23.9993 12.8269 23.9993 11.9978C24.0008 11.1701 23.3315 10.4978 22.5023 10.4978Z" fill="#FFD234"/>
<path fill-rule="evenodd" clip-rule="evenodd" d="M19.4242 6.69601L20.4847 5.63513C21.0749 5.04788 21.0704 4.09988 20.4847 3.51376C19.9001 2.92613 18.9509 2.92613 18.3652 3.51226L17.3043 4.57576C16.7186 5.15888 16.7186 6.10801 17.3043 6.69413C17.8871 7.28363 18.8396 7.28063 19.4242 6.69601Z" fill="#FFD234"/>
<path fill-rule="evenodd" clip-rule="evenodd" d="M12.0012 4.49701C12.8288 4.50301 13.5012 3.82614 13.5012 3.00001V1.50001C13.5012 0.667885 12.8303 1.00224e-05 12.0012 1.00224e-05C11.1721 -0.00298998 10.5012 0.667885 10.5012 1.49739L10.5042 3.00039C10.5012 3.82614 11.1721 4.49701 12.0012 4.49701Z" fill="#FFD234"/>
<path fill-rule="evenodd" clip-rule="evenodd" d="M4.57951 6.69451C5.16263 7.28026 6.10913 7.28026 6.69676 6.69301C7.28701 6.11138 7.28401 5.15926 6.69976 4.57463L5.63888 3.51413C5.05013 2.92501 4.10363 2.92951 3.51751 3.51413C2.92688 4.09876 2.92688 5.04788 3.51301 5.63401L4.57951 6.69451Z" fill="#FFD234"/>
</svg>
